<?xml version="1.0" encoding="UTF-8"?>
<svg xmlns="http://www.w3.org/2000/svg" xmlns:xlink="http://www.w3.org/1999/xlink" width="22pt" height="22pt" viewBox="0 0 22 22" version="1.1">
<g id="surface1">
<path style=" stroke:none;fill-rule:nonzero;fill:rgb(0%,0%,0%);fill-opacity:1;" d="M 18.511719 11.871094 L 18.511719 20.113281 C 18.511719 20.46875 18.222656 20.761719 17.863281 20.761719 L 17.363281 20.761719 C 17.1875 20.761719 17.042969 20.90625 17.042969 21.082031 C 17.042969 21.261719 17.1875 21.40625 17.363281 21.40625 L 17.863281 21.40625 C 18.578125 21.40625 19.15625 20.824219 19.15625 20.113281 L 19.15625 12.539062 L 19.8125 13.222656 C 20.109375 13.53125 20.601562 13.539062 20.902344 13.234375 L 21.777344 12.359375 C 22.070312 12.070312 22.074219 11.589844 21.789062 11.292969 L 11.867188 0.964844 C 11.394531 0.472656 10.605469 0.472656 10.132812 0.964844 L 0.210938 11.292969 C -0.0742188 11.589844 -0.0703125 12.070312 0.222656 12.359375 L 1.097656 13.234375 C 1.398438 13.535156 1.890625 13.53125 2.1875 13.222656 L 2.84375 12.539062 L 2.84375 14.105469 C 2.84375 14.285156 2.988281 14.429688 3.164062 14.429688 C 3.34375 14.429688 3.488281 14.285156 3.488281 14.105469 L 3.488281 11.871094 L 10.753906 4.304688 C 10.886719 4.164062 11.109375 4.164062 11.246094 4.304688 C 17.035156 10.332031 15.890625 9.140625 18.511719 11.871094 Z M 21.320312 11.90625 L 20.449219 12.777344 C 20.390625 12.824219 20.335938 12.824219 20.277344 12.777344 L 11.710938 3.859375 C 11.710938 3.859375 11.707031 3.855469 11.707031 3.855469 C 11.320312 3.453125 10.675781 3.453125 10.289062 3.859375 L 2.933594 11.515625 L 1.722656 12.777344 C 1.664062 12.824219 1.609375 12.824219 1.550781 12.777344 L 0.679688 11.90625 C 0.632812 11.859375 0.632812 11.785156 0.675781 11.738281 L 10.597656 1.410156 C 10.816406 1.183594 11.183594 1.183594 11.402344 1.410156 L 21.324219 11.738281 C 21.367188 11.785156 21.367188 11.859375 21.320312 11.90625 Z M 21.320312 11.90625 "/>
<path style=" stroke:none;fill-rule:nonzero;fill:rgb(0%,0%,0%);fill-opacity:1;" d="M 15.851562 20.761719 L 13.941406 20.761719 L 13.941406 17.109375 C 13.941406 15.488281 12.621094 14.167969 11 14.167969 C 9.378906 14.167969 8.058594 15.488281 8.058594 17.109375 L 8.058594 20.761719 L 4.136719 20.761719 C 3.777344 20.761719 3.488281 20.46875 3.488281 20.113281 L 3.488281 15.609375 C 3.488281 15.433594 3.34375 15.289062 3.164062 15.289062 C 2.988281 15.289062 2.84375 15.433594 2.84375 15.609375 L 2.84375 20.113281 C 2.84375 20.824219 3.421875 21.40625 4.136719 21.40625 L 15.851562 21.40625 C 16.03125 21.40625 16.175781 21.261719 16.175781 21.082031 C 16.175781 20.90625 16.03125 20.761719 15.851562 20.761719 Z M 8.703125 17.109375 C 8.703125 15.84375 9.734375 14.8125 11 14.8125 C 12.265625 14.8125 13.296875 15.84375 13.296875 17.109375 L 13.296875 20.761719 L 8.703125 20.761719 Z M 8.703125 17.109375 "/>
</g>
</svg>
